PathFileType	4	(X/Y/Z)	/Users/niels/Desktop/University/Third Semester/Perception and Action/Exam/Gymnastics Motion Tracking/Code for Gym Tracking/Analyzed Data/Webcam_Backflip/id4_5_pure_Sports2D/id4_5_pure_Sports2D_px_person00.trc
DataRate	CameraRate	NumFrames	NumMarkers	Units	OrigDataRate	OrigDataStartFrame	OrigNumFrames
29.81132075471698	29.81132075471698	7	22	m	29.81132075471698	59	159
Frame#	Time	Hip			RHip			RKnee			RAnkle			RBigToe			RSmallToe			RHeel			LHip			LKnee			LAnkle			LBigToe			LSmallToe			LHeel			Neck			Head			Nose			RShoulder			RElbow			RWrist			LShoulder			LElbow			LWrist		
		X1	Y1	Z1	X2	Y2	Z2	X3	Y3	Z3	X4	Y4	Z4	X5	Y5	Z5	X6	Y6	Z6	X7	Y7	Z7	X8	Y8	Z8	X9	Y9	Z9	X10	Y10	Z10	X11	Y11	Z11	X12	Y12	Z12	X13	Y13	Z13	X14	Y14	Z14	X15	Y15	Z15	X16	Y16	Z16	X17	Y17	Z17	X18	Y18	Z18	X19	Y19	Z19	X20	Y20	Z20	X21	Y21	Z21	X22	Y22	Z22
59	1.9791139240506328	0.8720704474031464	-0.43136037690571066	0.0	0.866834885230378	-0.42848919679682723	0.0	0.8738061274286937	-0.5488432140388331	0.0	0.8330612377915931	-0.6513121515059418	0.0	0.8656335424310356	-0.6898347240782369	0.0	0.8561134336430014	-0.6899763781195924	0.0	0.8183653813587896	-0.664229407862903	0.0	0.8783653161813614	-0.4324770955592373	0.0	0.8761982930473106	-0.5496044254504387	0.0	0.8447888610742474	-0.6522350345829787	0.0	0.8745537412617848	-0.686683787374633	0.0	0.8692408368829455	-0.6834015007489422	0.0	0.8299862892725707	-0.664576975567263	0.0	0.9889492368073939	-0.35379102674354934	0.0	1.0589319038504705	-0.32170970671158144	0.0	1.0351215240451812	-0.3525808684413927	0.0	0.9758271498056587	-0.3568828792087417	0.0	1.0261836247184906	-0.40124766938966083	0.0	1.0896509269365717	-0.4181853308470861	0.0	0.9851716441261236	-0.3572457103044848	0.0	1.0284805350512685	-0.3966989671047925	0.0	1.0883205259930377	-0.4136024191069618	0.0
60	2.0126582278481013	0.8733665519478667	-0.4783065809170037	0.0	0.8690668312828378	-0.47572255343464465	0.0	0.8845972895708306	-0.5930399091221179	0.0	0.8542774325665811	-0.7021154694835701	0.0	0.8880952446483928	-0.7343854124217298	0.0	0.8790461964608018	-0.7359522885380301	0.0	0.8404631577984042	-0.7173095934512745	0.0	0.8785343700814902	-0.4781610009373124	0.0	0.8847078231658209	-0.5936241263598178	0.0	0.8609433831739706	-0.7007306771035403	0.0	0.8916100508975919	-0.7314175778063445	0.0	0.8842091620941067	-0.7282562237932704	0.0	0.8468229086943867	-0.7149973286477712	0.0	0.9697831404424127	-0.3759940978414536	0.0	1.0316415032254618	-0.33086405888866194	0.0	1.014181183731814	-0.36504959574847073	0.0	0.9582583221753808	-0.38050088065572024	0.0	1.0257005734653242	-0.40309992954508644	0.0	1.0912395320890413	-0.3984721630599997	0.0	0.9662356983471772	-0.37969850689414814	0.0	1.023491902247325	-0.39810289406163807	0.0	1.0869888218143182	-0.3948287256834749	0.0
61	2.0462025316455694	0.8765525279464716	-0.5261241814954253	0.0	0.873810610874762	-0.5242647277798045	0.0	0.8949799493374786	-0.6384381202902444	0.0	0.8699381602272318	-0.7486189085201288	0.0	0.9038439707781077	-0.775267092720364	0.0	0.8952653205851954	-0.7779620459530898	0.0	0.8568429314291327	-0.7640725138914282	0.0	0.8799662165448441	-0.5248423098884993	0.0	0.8923485019978725	-0.6386676258856556	0.0	0.8709009011848315	-0.7453163674994692	0.0	0.9013812024062133	-0.7725359449119766	0.0	0.8914069450713735	-0.7695518132717398	0.0	0.8573739246384701	-0.7595419224836061	0.0	0.9495838839307356	-0.4048584995125926	0.0	1.0016228927940758	-0.34917450280213014	0.0	0.9909010680527858	-0.385144742481555	0.0	0.9406516816110762	-0.4106402910642188	0.0	1.01644691301046	-0.4081688247131397	0.0	1.0783203278816542	-0.3834077959865638	0.0	0.9455811114625132	-0.4081849114530165	0.0	1.0080073807494976	-0.40340654904584694	0.0	1.068832911877594	-0.38072747420759173	0.0
62	2.079746835443038	0.8804700695931567	-0.5721085615876801	0.0	0.8795546706500105	-0.5710793996081435	0.0	0.9031133008689886	-0.682402883261807	0.0	0.8787461614972715	-0.789864921699589	0.0	0.9125060106983158	-0.8116089230587562	0.0	0.9044301760972878	-0.8151640223683982	0.0	0.8661854965718142	-0.8037516533732957	0.0	0.8820168888762195	-0.5699062864110603	0.0	0.8980996835533925	-0.6822869265597834	0.0	0.8751552534528757	-0.7852963332447934	0.0	0.9055142931087367	-0.8088473659411364	0.0	0.8927321817484201	-0.8063607181218327	0.0	0.8620569597628104	-0.7978252517269566	0.0	0.9301590279015663	-0.43773534072968756	0.0	0.9718549015404474	-0.37407133801871206	0.0	0.9676719924579226	-0.4108515826128322	0.0	0.9242788079164211	-0.44446132537363864	0.0	1.0000757377012064	-0.4177278525779377	0.0	1.054633285537188	-0.37616221298435343	0.0	0.9252355388197008	-0.4403850327077439	0.0	0.9846446242441805	-0.41372387281864337	0.0	1.0375634336215247	-0.3745266252986019	0.0
63	2.113291139240506	0.8838956873876465	-0.6129952121508644	0.0	0.8845674046579943	-0.6126563899384907	0.0	0.9078593628626763	-0.7215420743304146	0.0	0.881252674645124	-0.8241282494153156	0.0	0.9147127065016739	-0.8417214965789649	0.0	0.9072808743702723	-0.845823738555161	0.0	0.8690679364744248	-0.8350920689336268	0.0	0.8839069040367852	-0.6100793224061428	0.0	0.9014614709964281	-0.7211746392387307	0.0	0.8753932619390176	-0.8189117751151285	0.0	0.9063171428905268	-0.8384789745063845	0.0	0.8909468538873418	-0.8368323588764581	0.0	0.8625153968996545	-0.8285931903970482	0.0	0.9130824079742185	-0.47064219218263215	0.0	0.945175354841932	-0.40140955206856427	0.0	0.9467426999213439	-0.4386419822816559	0.0	0.9099542636555976	-0.47795569805673155	0.0	0.9794670252326111	-0.4310784649713334	0.0	1.0252583672070936	-0.376971337083046	0.0	0.9069702125655001	-0.472645680119094	0.0	0.9579109495944708	-0.4280635513545525	0.0	0.9995398195934329	-0.37642919553027493	0.0
64	2.1468354430379746	0.8858207788621132	-0.6453731304147566	0.0	0.8873822260401971	-0.6454898237118124	0.0	0.909316829166981	-0.7522233738987234	0.0	0.8794840511191016	-0.849496073214046	0.0	0.9121636214124884	-0.8637989984240273	0.0	0.9054714036276054	-0.8680158431087429	0.0	0.8675196376522449	-0.8568999674336397	0.0	0.8848799926800557	-0.6419648557919174	0.0	0.9028085098749475	-0.751679449401522	0.0	0.8737661413094432	-0.8440174721164703	0.0	0.9058054956682139	-0.8597001119054392	0.0	0.888559377235595	-0.8589668776890529	0.0	0.8609028783591054	-0.8504071215046097	0.0	0.8991480826023465	-0.4988777265964659	0.0	0.9234169722714223	-0.42616595036592064	0.0	0.929444110855835	-0.4638687714579529	0.0	0.8978332569349926	-0.5065417021192982	0.0	0.9578860388702598	-0.4454199249369644	0.0	0.9952051931314287	-0.3831977040846592	0.0	0.8918498523648688	-0.5005463921579802	0.0	0.9327381513432551	-0.4434798044530625	0.0	0.9621899254026836	-0.3837499827085701	0.0
65	2.180379746835443	0.8856608817008987	-0.6663146531775356	0.0	0.8872075737844659	-0.6666545525231533	0.0	0.9084951809996392	-0.7712993846808088	0.0	0.8758359638275742	-0.8644184139746284	0.0	0.9071178119721288	-0.8765751188347108	0.0	0.9010275127496352	-0.8804508115758057	0.0	0.8639270104580167	-0.8686757003152764	0.0	0.8844356203719367	-0.662671570304091	0.0	0.9031995467896492	-0.7705978591875178	0.0	0.8722488604023969	-0.8588658858116683	0.0	0.9052553576899692	-0.8715333904176085	0.0	0.887445458538254	-0.871441140164988	0.0	0.8592751071462006	-0.8624655552883337	0.0	0.8881393351709697	-0.5180878451786972	0.0	0.9069026374754557	-0.4436125417752882	0.0	0.9158331501415219	-0.4817801329964674	0.0	0.8874738899340558	-0.5258888735152927	0.0	0.9379760409423943	-0.4566856509359404	0.0	0.9680986879810272	-0.39038278497767925	0.0	0.8801411246345872	-0.5197995350011434	0.0	0.9127338338461274	-0.45598116999559907	0.0	0.9318102662997225	-0.3922102772262383	0.0
